{
	"asset":{
		"version":"2.0",
		"generator":"Created using the official Cinema 4D glTF Exporter 1.000x284978"
	},
	"scenes":[{
		"nodes":[0]
	}],
	"nodes":[{
		"name":"Tree",
		"translation":[0.0,
		0.0,
		0.0],
		"rotation":[0.0,
		0.0,
		0.0,
		-1.0],
		"scale":[1.0,
		1.0,
		1.0],
		"children":[1,
		3]
	},
	{
		"name":"Tree Trunk",
		"translation":[-0.010072292760014534,
		0.6610602736473084,
		-0.008456920273602009],
		"rotation":[0.0,
		0.0,
		0.0,
		-1.0],
		"scale":[0.8438817858695984,
		0.8438817858695984,
		0.8438817858695984],
		"children":[2]
	},
	{
		"name":"Cylinder",
		"translation":[-4.810300491264741e-10,
		-0.46846190094947817,
		-3.607729670562776e-10],
		"rotation":[0.0,
		0.0,
		0.0,
		-1.0],
		"scale":[1.0,
		1.0,
		1.0],
		"mesh":0
	},
	{
		"name":"Leaves",
		"translation":[-0.010329440236091614,
		0.5909038186073303,
		-0.00867282785475254],
		"rotation":[0.0,
		0.0,
		0.0,
		-1.0],
		"scale":[1.0,
		1.0,
		1.0],
		"mesh":1
	}],
	"meshes":[{
		"name":"Cylinder",
		"primitives":[{
			"attributes":{
				"POSITION":1,
				"NORMAL":2,
				"TEXCOORD_0":3
			},
			"indices":0,
			"material":0
		}]
	},
	{
		"name":"Leaves",
		"primitives":[{
			"attributes":{
				"POSITION":5,
				"NORMAL":6,
				"TEXCOORD_0":7
			},
			"indices":4,
			"material":1
		}]
	}],
	"accessors":[{
		"bufferView":0,
		"type":"SCALAR",
		"componentType":5123,
		"count":27072,
		"byteOffset":0,
		"min":[0],
		"max":[5597]
	},
	{
		"bufferView":1,
		"type":"VEC3",
		"componentType":5126,
		"count":5598,
		"byteOffset":0,
		"min":[-0.15426987409591676,
		-0.3352685868740082,
		-0.15120631456375123],
		"max":[0.11336508393287659,
		0.5695710182189941,
		0.15065822005271913]
	},
	{
		"bufferView":1,
		"type":"VEC3",
		"componentType":5126,
		"count":5598,
		"byteOffset":12,
		"min":[-0.9996160864830017,
		-0.9999865293502808,
		-0.9996495842933655],
		"max":[0.9996868371963501,
		1.0,
		0.9996495246887207]
	},
	{
		"bufferView":1,
		"type":"VEC2",
		"componentType":5126,
		"count":5598,
		"byteOffset":24,
		"min":[0.0,
		0.0],
		"max":[1.0,
		1.0]
	},
	{
		"bufferView":2,
		"type":"SCALAR",
		"componentType":5123,
		"count":1584,
		"byteOffset":0,
		"min":[0],
		"max":[322]
	},
	{
		"bufferView":3,
		"type":"VEC3",
		"componentType":5126,
		"count":323,
		"byteOffset":0,
		"min":[-0.3041642904281616,
		-0.3041642904281616,
		-0.3041642904281616],
		"max":[0.3041642904281616,
		0.3041642904281616,
		0.3041642904281616]
	},
	{
		"bufferView":3,
		"type":"VEC3",
		"componentType":5126,
		"count":323,
		"byteOffset":12,
		"min":[-1.0,
		-1.0,
		-1.0],
		"max":[1.0,
		1.0,
		1.0]
	},
	{
		"bufferView":3,
		"type":"VEC2",
		"componentType":5126,
		"count":323,
		"byteOffset":24,
		"min":[0.0,
		0.0],
		"max":[1.0,
		1.0]
	}],
	"bufferViews":[{
		"buffer":0,
		"byteOffset":0,
		"byteLength":54144,
		"target":34963
	},
	{
		"buffer":0,
		"byteOffset":54144,
		"byteLength":179136,
		"target":34962,
		"byteStride":32
	},
	{
		"buffer":1,
		"byteOffset":0,
		"byteLength":3168,
		"target":34963
	},
	{
		"buffer":1,
		"byteOffset":3168,
		"byteLength":10336,
		"target":34962,
		"byteStride":32
	}],
	"buffers":[{
		"uri":"data:application/octet-stream;base64,",
		"byteLength":233280
	},
	{
		"uri":"data:application/octet-stream;base64,",
		"byteLength":13504
	}],
	"materials":[{
		"pbrMetallicRoughness":{
			"baseColorFactor":[0.8571740164974619,
			0.6325227663853594,
			0.6075615163729036,
			1.0],
			"metallicFactor":1.0,
			"roughnessFactor":1.0
		},
		"emissiveFactor":[0.48680203045685285,
		0.3503986188770647,
		0.3088845370919117],
		"alphaMode":"OPAQUE",
		"doubleSided":true,
		"name":"Trunk"
	},
	{
		"pbrMetallicRoughness":{
			"baseColorFactor":[0.297276404957613,
			0.7055837563451777,
			0.5354556932670258,
			1.0],
			"metallicFactor":1.0,
			"roughnessFactor":1.0
		},
		"emissiveFactor":[0.35862554752509387,
		0.5281403616401185,
		0.6335144352791878],
		"alphaMode":"OPAQUE",
		"doubleSided":true,
		"name":"Tree"
	}]
}