{
	"asset":{
		"version":"2.0",
		"generator":"Created using the official Cinema 4D glTF Exporter 1.000x284978"
	},
	"scenes":[{
		"nodes":[0]
	}],
	"nodes":[{
		"name":"Car",
		"translation":[0.0,
		0.0,
		-6.102937533114528e-8],
		"rotation":[0.0,
		1.0,
		0.0,
		-6.123234262925839e-17],
		"scale":[1.0,
		1.0,
		1.0],
		"children":[1,
		3,
		7]
	},
	{
		"name":"Head Light Symmetry",
		"translation":[5.8233514808188789e-24,
		-0.0967646986246109,
		-0.12373191118240357],
		"rotation":[-1.580506747700383e-8,
		0.7071067690849304,
		1.580506925336067e-8,
		0.7071067690849304],
		"scale":[1.0,
		1.0,
		1.0],
		"children":[2]
	},
	{
		"name":"Head Light",
		"translation":[0.18499214947223664,
		0.006821447052061558,
		-0.09397111088037491],
		"rotation":[0.0,
		0.0,
		0.0,
		-1.0],
		"scale":[1.0,
		1.0,
		1.0],
		"mesh":0
	},
	{
		"name":"Car Frame",
		"translation":[5.8233514808188789e-24,
		-0.0967646986246109,
		-0.12373191118240357],
		"rotation":[4.7102771630894639e-16,
		2.107342389479072e-8,
		2.2351741790771486e-8,
		-1.0],
		"scale":[1.0,
		1.0,
		1.0],
		"children":[4]
	},
	{
		"name":"Car Frame - Boole",
		"translation":[-1.0587911998450936e-23,
		0.035164665430784228,
		0.10271086543798447],
		"rotation":[2.3665827156630355e-30,
		0.0,
		0.0,
		-1.0],
		"scale":[1.0,
		1.0,
		1.0],
		"children":[5,
		6]
	},
	{
		"name":"Car Frame",
		"mesh":1
	},
	{
		"name":"Windows",
		"translation":[1.2705493924824579e-23,
		-2.3312975157552796e-16,
		9.405890597675179e-17],
		"rotation":[0.0,
		0.0,
		0.0,
		-1.0],
		"scale":[1.0,
		1.0,
		1.0],
		"mesh":2
	},
	{
		"name":"Wheels.1",
		"translation":[8.470329283216386e-24,
		-0.0967646986246109,
		-0.039201900362968448],
		"rotation":[0.0,
		0.0,
		0.0,
		-1.0],
		"scale":[1.0,
		1.0,
		1.0],
		"children":[8]
	},
	{
		"name":"Wheels",
		"translation":[-1.37642848880114e-23,
		8.63624271283093e-17,
		-0.08525896817445755],
		"rotation":[0.0,
		0.0,
		0.0,
		-1.0],
		"scale":[1.0,
		1.0,
		1.0],
		"children":[9]
	},
	{
		"name":"Wheel",
		"translation":[0.11614979058504105,
		-0.03295708820223808,
		-0.10224458575248718],
		"rotation":[0.0,
		4.474773252960023e-24,
		0.0,
		-1.0],
		"scale":[1.0,
		1.0,
		1.0],
		"children":[10,
		11,
		12]
	},
	{
		"name":"Wheel",
		"mesh":3
	},
	{
		"name":"Wheel-Black",
		"mesh":4
	},
	{
		"name":"Wheel-White",
		"mesh":5
	}],
	"meshes":[{
		"name":"Head Light",
		"primitives":[{
			"attributes":{
				"POSITION":1,
				"NORMAL":2,
				"TEXCOORD_0":3
			},
			"indices":0,
			"material":0
		}]
	},
	{
		"name":"Car Frame",
		"primitives":[{
			"attributes":{
				"POSITION":5,
				"NORMAL":6,
				"TEXCOORD_0":7
			},
			"indices":4,
			"material":1
		}]
	},
	{
		"name":"Windows",
		"primitives":[{
			"attributes":{
				"POSITION":9
			},
			"indices":8,
			"material":2
		}]
	},
	{
		"name":"Wheel",
		"primitives":[{
			"attributes":{
				"POSITION":11,
				"NORMAL":12,
				"TEXCOORD_0":13
			},
			"indices":10,
			"material":1
		}]
	},
	{
		"name":"Wheel-Black",
		"primitives":[{
			"attributes":{
				"POSITION":15,
				"NORMAL":16,
				"TEXCOORD_0":17
			},
			"indices":14,
			"material":3
		}]
	},
	{
		"name":"Wheel-White",
		"primitives":[{
			"attributes":{
				"POSITION":19,
				"NORMAL":20,
				"TEXCOORD_0":21
			},
			"indices":18,
			"material":4
		}]
	}],
	"accessors":[{
		"bufferView":0,
		"type":"SCALAR",
		"componentType":5123,
		"count":864,
		"byteOffset":0,
		"min":[0],
		"max":[295]
	},
	{
		"bufferView":1,
		"type":"VEC3",
		"componentType":5126,
		"count":296,
		"byteOffset":0,
		"min":[-0.0036676363088190557,
		-0.022010812535881997,
		-0.022010812535881997],
		"max":[0.0036676363088190557,
		0.022010812535881997,
		0.20995302498340608]
	},
	{
		"bufferView":1,
		"type":"VEC3",
		"componentType":5126,
		"count":296,
		"byteOffset":12,
		"min":[-1.0,
		-0.9995750784873962,
		-0.9995750784873962],
		"max":[1.0,
		0.9995750784873962,
		0.9995750784873962]
	},
	{
		"bufferView":1,
		"type":"VEC2",
		"componentType":5126,
		"count":296,
		"byteOffset":24,
		"min":[0.0,
		0.0],
		"max":[1.0,
		1.0]
	},
	{
		"bufferView":2,
		"type":"SCALAR",
		"componentType":5123,
		"count":1716,
		"byteOffset":0,
		"min":[0],
		"max":[715]
	},
	{
		"bufferView":3,
		"type":"VEC3",
		"componentType":5126,
		"count":716,
		"byteOffset":0,
		"min":[-0.14124657213687898,
		-0.0659107118844986,
		-0.29140594601631167],
		"max":[0.1416987180709839,
		0.2039853185415268,
		0.25759702920913699]
	},
	{
		"bufferView":3,
		"type":"VEC3",
		"componentType":5126,
		"count":716,
		"byteOffset":12,
		"min":[-1.0,
		-0.9999998807907105,
		-1.0],
		"max":[1.0,
		1.0,
		0.9999217391014099]
	},
	{
		"bufferView":3,
		"type":"VEC2",
		"componentType":5126,
		"count":716,
		"byteOffset":24,
		"min":[0.0,
		0.0],
		"max":[1.0,
		1.0]
	},
	{
		"bufferView":4,
		"type":"SCALAR",
		"componentType":5123,
		"count":90,
		"byteOffset":0,
		"min":[0],
		"max":[39]
	},
	{
		"bufferView":5,
		"type":"VEC3",
		"componentType":5126,
		"count":40,
		"byteOffset":0,
		"min":[-0.13246317207813264,
		-0.03755650296807289,
		-0.29140594601631167],
		"max":[0.1323394775390625,
		0.19289802014827729,
		0.25055992603302]
	},
	{
		"bufferView":6,
		"type":"SCALAR",
		"componentType":5123,
		"count":864,
		"byteOffset":0,
		"min":[0],
		"max":[575]
	},
	{
		"bufferView":7,
		"type":"VEC3",
		"componentType":5126,
		"count":576,
		"byteOffset":0,
		"min":[-0.21655769646167756,
		-0.01179392822086811,
		-0.011824211105704308],
		"max":[-0.015741877257823945,
		0.011808873154222966,
		0.3868313133716583]
	},
	{
		"bufferView":7,
		"type":"VEC3",
		"componentType":5126,
		"count":576,
		"byteOffset":12,
		"min":[-0.04939328134059906,
		-0.9983632564544678,
		-0.9983528852462769],
		"max":[0.04939325153827667,
		0.9983632564544678,
		0.9983528852462769]
	},
	{
		"bufferView":7,
		"type":"VEC2",
		"componentType":5126,
		"count":576,
		"byteOffset":24,
		"min":[0.013888888992369175,
		0.8268847465515137],
		"max":[0.9861111044883728,
		0.8268847465515137]
	},
	{
		"bufferView":8,
		"type":"SCALAR",
		"componentType":5123,
		"count":91392,
		"byteOffset":0,
		"min":[0],
		"max":[17663]
	},
	{
		"bufferView":9,
		"type":"VEC3",
		"componentType":5126,
		"count":17664,
		"byteOffset":0,
		"min":[-0.25593292713165285,
		-0.04867865517735481,
		-0.048801567405462268],
		"max":[0.02363336645066738,
		0.04867865517735481,
		0.42380866408348086]
	},
	{
		"bufferView":9,
		"type":"VEC3",
		"componentType":5126,
		"count":17664,
		"byteOffset":12,
		"min":[-1.0,
		-0.9999054670333862,
		-0.999904453754425],
		"max":[1.0,
		0.9999054670333862,
		0.9999045133590698]
	},
	{
		"bufferView":9,
		"type":"VEC2",
		"componentType":5126,
		"count":17664,
		"byteOffset":24,
		"min":[0.0,
		0.0],
		"max":[1.0,
		1.0]
	},
	{
		"bufferView":10,
		"type":"SCALAR",
		"componentType":5123,
		"count":11664,
		"byteOffset":0,
		"min":[0],
		"max":[2931]
	},
	{
		"bufferView":11,
		"type":"VEC3",
		"componentType":5126,
		"count":2932,
		"byteOffset":0,
		"min":[-0.2460729032754898,
		-0.022627918049693109,
		-0.02268555574119091],
		"max":[0.013773336075246334,
		0.022642862051725389,
		0.39769265055656435]
	},
	{
		"bufferView":11,
		"type":"VEC3",
		"componentType":5126,
		"count":2932,
		"byteOffset":12,
		"min":[-1.0,
		-0.9981928467750549,
		-0.998184084892273],
		"max":[1.0,
		0.9981927871704102,
		0.998184084892273]
	},
	{
		"bufferView":11,
		"type":"VEC2",
		"componentType":5126,
		"count":2932,
		"byteOffset":24,
		"min":[0.0,
		0.0],
		"max":[1.0,
		1.0]
	}],
	"bufferViews":[{
		"buffer":0,
		"byteOffset":0,
		"byteLength":1728,
		"target":34963
	},
	{
		"buffer":0,
		"byteOffset":1728,
		"byteLength":9472,
		"target":34962,
		"byteStride":32
	},
	{
		"buffer":1,
		"byteOffset":0,
		"byteLength":3432,
		"target":34963
	},
	{
		"buffer":1,
		"byteOffset":3432,
		"byteLength":22912,
		"target":34962,
		"byteStride":32
	},
	{
		"buffer":2,
		"byteOffset":0,
		"byteLength":180,
		"target":34963
	},
	{
		"buffer":2,
		"byteOffset":180,
		"byteLength":480,
		"target":34962
	},
	{
		"buffer":3,
		"byteOffset":0,
		"byteLength":1728,
		"target":34963
	},
	{
		"buffer":3,
		"byteOffset":1728,
		"byteLength":18432,
		"target":34962,
		"byteStride":32
	},
	{
		"buffer":4,
		"byteOffset":0,
		"byteLength":182784,
		"target":34963
	},
	{
		"buffer":4,
		"byteOffset":182784,
		"byteLength":565248,
		"target":34962,
		"byteStride":32
	},
	{
		"buffer":5,
		"byteOffset":0,
		"byteLength":23328,
		"target":34963
	},
	{
		"buffer":5,
		"byteOffset":23328,
		"byteLength":93824,
		"target":34962,
		"byteStride":32
	}],
	"buffers":[{
		"uri":"data:application/octet-stream;base64,",
		"byteLength":11200
	},
	{
		"uri":"data:application/octet-stream;base64,",
		"byteLength":26344
	},
	{
		"uri":"data:application/octet-stream;base64,",
		"byteLength":660
	},
	{
		"uri":"data:application/octet-stream;base64,",
		"byteLength":20160
	},
	{
		"uri":"data:application/octet-stream;base64,",
		"byteLength":748032
	},
	{
		"uri":"data:application/octet-stream;base64,",
		"byteLength":117152
	}],
	"materials":[{
		"pbrMetallicRoughness":{
			"baseColorFactor":[0.9644670050761421,
			0.9213842150016749,
			0.6413460795176378,
			1.0],
			"metallicFactor":1.0,
			"roughnessFactor":1.0
		},
		"emissiveFactor":[0.6893401015228426,
		0.6712609618043921,
		0.47239042490144036],
		"alphaMode":"OPAQUE",
		"doubleSided":true,
		"name":"Yellow"
	},
	{
		"pbrMetallicRoughness":{
			"baseColorFactor":[0.5413157648395343,
			0.1925393363017907,
			0.8900921933772779,
			1.0],
			"metallicFactor":1.0,
			"roughnessFactor":1.0
		},
		"emissiveFactor":[0.378921035387674,
		0.1347775354112535,
		0.6230645353640946],
		"alphaMode":"OPAQUE",
		"doubleSided":true,
		"name":"Purple"
	},
	{
		"pbrMetallicRoughness":{
			"baseColorFactor":[0.7453174429370594,
			0.8676916370776667,
			0.9900658312182741,
			1.0],
			"metallicFactor":1.0,
			"roughnessFactor":0.0
		},
		"emissiveFactor":[0.48397021309490087,
		0.5412089979128554,
		0.6111675126903554],
		"alphaMode":"OPAQUE",
		"doubleSided":true,
		"name":"Windows"
	},
	{
		"pbrMetallicRoughness":{
			"baseColorFactor":[0.1638,
			0.1638,
			0.21,
			1.0],
			"metallicFactor":1.0,
			"roughnessFactor":1.0
		},
		"emissiveFactor":[0.10802030456852792,
		0.10802030456852792,
		0.14],
		"alphaMode":"OPAQUE",
		"doubleSided":true,
		"name":"Black"
	},
	{
		"pbrMetallicRoughness":{
			"baseColorFactor":[0.8113066556726533,
			0.816878816769306,
			0.8781725888324873,
			1.0],
			"metallicFactor":1.0,
			"roughnessFactor":1.0
		},
		"emissiveFactor":[0.5088252724883404,
		0.5102231441160559,
		0.550761421319797],
		"alphaMode":"OPAQUE",
		"doubleSided":true,
		"name":"White"
	},
	{
		"pbrMetallicRoughness":{
			"baseColorFactor":[0.5426576309618902,
			0.5545427606998374,
			0.6852791878172588,
			1.0],
			"metallicFactor":1.0,
			"roughnessFactor":1.0
		},
		"emissiveFactor":[0.3657914401298669,
		0.3689960232592097,
		0.46192893401015236],
		"alphaMode":"OPAQUE",
		"doubleSided":true,
		"name":"Light Grey"
	}]
}