{
	"asset":{
		"version":"2.0",
		"generator":"Created using the official Cinema 4D glTF Exporter 1.000x284978"
	},
	"scenes":[{
		"nodes":[0]
	}],
	"nodes":[{
		"name":"Building",
		"translation":[0.0,
		0.0,
		0.0],
		"rotation":[0.0,
		0.0,
		0.0,
		-1.0],
		"scale":[1.0,
		1.0,
		1.0],
		"children":[1,
		2]
	},
	{
		"name":"Building",
		"translation":[0.0,
		0.0,
		0.0],
		"rotation":[0.0,
		0.0,
		0.0,
		-1.0],
		"scale":[1.0,
		1.0,
		1.0],
		"mesh":0
	},
	{
		"name":"Windows",
		"translation":[0.0,
		0.0,
		0.0],
		"rotation":[0.0,
		0.0,
		0.0,
		-1.0],
		"scale":[1.0,
		1.0,
		1.0],
		"mesh":1
	}],
	"meshes":[{
		"name":"Building",
		"primitives":[{
			"attributes":{
				"POSITION":1,
				"NORMAL":2,
				"TEXCOORD_0":3
			},
			"indices":0,
			"material":0
		}]
	},
	{
		"name":"Windows",
		"primitives":[{
			"attributes":{
				"POSITION":5,
				"NORMAL":6,
				"TEXCOORD_0":7
			},
			"indices":4,
			"material":1
		}]
	}],
	"accessors":[{
		"bufferView":0,
		"type":"SCALAR",
		"componentType":5123,
		"count":156,
		"byteOffset":0,
		"min":[0],
		"max":[95]
	},
	{
		"bufferView":1,
		"type":"VEC3",
		"componentType":5126,
		"count":96,
		"byteOffset":0,
		"min":[-0.981049656867981,
		-0.15000000596046449,
		-0.5],
		"max":[0.981049656867981,
		0.15000000596046449,
		0.5]
	},
	{
		"bufferView":1,
		"type":"VEC3",
		"componentType":5126,
		"count":96,
		"byteOffset":12,
		"min":[-1.0,
		-1.0,
		-1.0],
		"max":[1.0,
		1.0,
		1.0]
	},
	{
		"bufferView":1,
		"type":"VEC2",
		"componentType":5126,
		"count":96,
		"byteOffset":24,
		"min":[0.0,
		0.0],
		"max":[1.0,
		1.0]
	},
	{
		"bufferView":2,
		"type":"SCALAR",
		"componentType":5123,
		"count":24,
		"byteOffset":0,
		"min":[0],
		"max":[15]
	},
	{
		"bufferView":3,
		"type":"VEC3",
		"componentType":5126,
		"count":16,
		"byteOffset":0,
		"min":[-0.9716926217079163,
		-0.12713760137557984,
		-0.4875761568546295],
		"max":[0.9716926217079163,
		0.12713760137557984,
		0.4875761568546295]
	},
	{
		"bufferView":3,
		"type":"VEC3",
		"componentType":5126,
		"count":16,
		"byteOffset":12,
		"min":[-1.0,
		0.0,
		-1.0],
		"max":[1.0,
		0.0,
		1.0]
	},
	{
		"bufferView":3,
		"type":"VEC2",
		"componentType":5126,
		"count":16,
		"byteOffset":24,
		"min":[0.0,
		0.3333333134651184],
		"max":[1.0,
		0.6666666269302368]
	}],
	"bufferViews":[{
		"buffer":0,
		"byteOffset":0,
		"byteLength":312,
		"target":34963
	},
	{
		"buffer":0,
		"byteOffset":312,
		"byteLength":3072,
		"target":34962,
		"byteStride":32
	},
	{
		"buffer":1,
		"byteOffset":0,
		"byteLength":48,
		"target":34963
	},
	{
		"buffer":1,
		"byteOffset":48,
		"byteLength":512,
		"target":34962,
		"byteStride":32
	}],
	"buffers":[{
		"uri":"data:application/octet-stream;base64,",
		"byteLength":3384
	},
	{
		"uri":"data:application/octet-stream;base64,",
		"byteLength":560
	}],
	"materials":[{
		"pbrMetallicRoughness":{
			"baseColorFactor":[0.5426576309618902,
			0.5545427606998374,
			0.6852791878172588,
			1.0],
			"metallicFactor":1.0,
			"roughnessFactor":1.0
		},
		"emissiveFactor":[0.3657914401298669,
		0.3689960232592097,
		0.46192893401015236],
		"alphaMode":"OPAQUE",
		"doubleSided":true,
		"name":"Light Grey"
	},
	{
		"pbrMetallicRoughness":{
			"baseColorFactor":[0.7453174429370594,
			0.8676916370776667,
			0.9900658312182741,
			1.0],
			"metallicFactor":1.0,
			"roughnessFactor":0.0
		},
		"emissiveFactor":[0.48397021309490087,
		0.5412089979128554,
		0.6111675126903554],
		"alphaMode":"OPAQUE",
		"doubleSided":true,
		"name":"Windows"
	}]
}