{
	"asset":{
		"version":"2.0",
		"generator":"Created using the official Cinema 4D glTF Exporter 1.000x284978"
	},
	"scenes":[{
		"nodes":[0]
	}],
	"nodes":[{
		"name":"Flower",
		"translation":[0.0,
		0.0,
		0.0],
		"rotation":[0.0,
		0.0,
		0.0,
		-1.0],
		"scale":[1.0,
		1.0,
		1.0],
		"children":[1,
		12,
		13]
	},
	{
		"name":"Petal.Cloner",
		"translation":[0.000009741089343151544,
		0.08720333874225617,
		0.0],
		"rotation":[0.0,
		0.0,
		0.0,
		-1.0],
		"scale":[1.0,
		1.0,
		1.0],
		"children":[2,
		4,
		6,
		8,
		10]
	},
	{
		"name":"Petal Null 0",
		"translation":[0.0,
		0.0,
		0.0035000001080334188],
		"rotation":[0.2164396196603775,
		0.0,
		0.0,
		-0.9762960076332092],
		"scale":[0.6499999761581421,
		0.30000001192092898,
		1.0],
		"children":[3]
	},
	{
		"name":"Petal",
		"translation":[0.0,
		0.0,
		0.018578415736556054],
		"rotation":[0.0,
		0.0,
		0.0,
		-1.0],
		"scale":[1.0,
		1.0,
		1.0],
		"mesh":0
	},
	{
		"name":"Petal Null 1",
		"translation":[0.003328697755932808,
		0.0,
		0.0010815594578161836],
		"rotation":[-0.1751033365726471,
		0.5738524198532105,
		0.1272200047969818,
		0.789840042591095],
		"scale":[0.6499999761581421,
		0.30000001192092898,
		1.0],
		"children":[5]
	},
	{
		"name":"Petal",
		"translation":[0.0,
		0.0,
		0.018578415736556054],
		"rotation":[0.0,
		0.0,
		0.0,
		-1.0],
		"scale":[1.0,
		1.0,
		1.0],
		"mesh":1
	},
	{
		"name":"Petal Null 2",
		"translation":[0.002057248493656516,
		0.0,
		-0.002831559395417571],
		"rotation":[-0.06688352674245835,
		0.928512692451477,
		0.20584630966186524,
		0.30169206857681277],
		"scale":[0.6499999761581421,
		0.30000001192092898,
		1.0],
		"children":[7]
	},
	{
		"name":"Petal",
		"translation":[0.0,
		0.0,
		0.018578415736556054],
		"rotation":[0.0,
		0.0,
		0.0,
		-1.0],
		"scale":[1.0,
		1.0,
		1.0],
		"mesh":2
	},
	{
		"name":"Petal Null 3",
		"translation":[-0.002057248493656516,
		0.0,
		-0.002831559395417571],
		"rotation":[0.06688351929187775,
		0.928512692451477,
		0.20584630966186524,
		-0.30169206857681277],
		"scale":[0.6499999761581421,
		0.30000001192092898,
		1.0],
		"children":[9]
	},
	{
		"name":"Petal",
		"translation":[0.0,
		0.0,
		0.018578415736556054],
		"rotation":[0.0,
		0.0,
		0.0,
		-1.0],
		"scale":[1.0,
		1.0,
		1.0],
		"mesh":3
	},
	{
		"name":"Petal Null 4",
		"translation":[-0.003328697755932808,
		0.0,
		0.0010815594578161836],
		"rotation":[0.1751033216714859,
		0.5738524198532105,
		0.127220019698143,
		-0.789840042591095],
		"scale":[0.6499999761581421,
		0.30000001192092898,
		1.0],
		"children":[11]
	},
	{
		"name":"Petal",
		"translation":[0.0,
		0.0,
		0.018578415736556054],
		"rotation":[0.0,
		0.0,
		0.0,
		-1.0],
		"scale":[1.0,
		1.0,
		1.0],
		"mesh":4
	},
	{
		"name":"Stigma",
		"translation":[0.000009741089343151544,
		0.09379037469625473,
		0.0],
		"rotation":[0.0,
		0.0,
		0.0,
		-1.0],
		"scale":[1.0,
		1.0,
		1.0],
		"mesh":5
	},
	{
		"name":"Stem",
		"translation":[0.000009741089343151544,
		0.041670769453048709,
		0.0],
		"rotation":[0.0,
		0.0,
		0.0,
		-1.0],
		"scale":[1.0,
		1.0,
		1.0],
		"mesh":6
	}],
	"meshes":[{
		"name":"Petal",
		"primitives":[{
			"attributes":{
				"POSITION":1,
				"NORMAL":2,
				"TEXCOORD_0":3
			},
			"indices":0,
			"material":0
		}]
	},
	{
		"name":"Petal",
		"primitives":[{
			"attributes":{
				"POSITION":5,
				"NORMAL":6,
				"TEXCOORD_0":7
			},
			"indices":4,
			"material":0
		}]
	},
	{
		"name":"Petal",
		"primitives":[{
			"attributes":{
				"POSITION":9,
				"NORMAL":10,
				"TEXCOORD_0":11
			},
			"indices":8,
			"material":0
		}]
	},
	{
		"name":"Petal",
		"primitives":[{
			"attributes":{
				"POSITION":13,
				"NORMAL":14,
				"TEXCOORD_0":15
			},
			"indices":12,
			"material":0
		}]
	},
	{
		"name":"Petal",
		"primitives":[{
			"attributes":{
				"POSITION":17,
				"NORMAL":18,
				"TEXCOORD_0":19
			},
			"indices":16,
			"material":0
		}]
	},
	{
		"name":"Stigma",
		"primitives":[{
			"attributes":{
				"POSITION":21,
				"NORMAL":22,
				"TEXCOORD_0":23
			},
			"indices":20,
			"material":1
		}]
	},
	{
		"name":"Stem",
		"primitives":[{
			"attributes":{
				"POSITION":25,
				"NORMAL":26,
				"TEXCOORD_0":27
			},
			"indices":24,
			"material":2
		}]
	}],
	"accessors":[{
		"bufferView":0,
		"type":"SCALAR",
		"componentType":5123,
		"count":1584,
		"byteOffset":0,
		"min":[0],
		"max":[322]
	},
	{
		"bufferView":1,
		"type":"VEC3",
		"componentType":5126,
		"count":323,
		"byteOffset":0,
		"min":[0.0018298844806849957,
		-0.025853965431451799,
		-0.020428964868187906],
		"max":[0.040892548859119418,
		0.01798219606280327,
		0.019327683374285699]
	},
	{
		"bufferView":1,
		"type":"VEC3",
		"componentType":5126,
		"count":323,
		"byteOffset":12,
		"min":[-0.9877350330352783,
		-0.9973780512809753,
		-0.997353196144104],
		"max":[0.9883397817611694,
		0.9967546463012695,
		0.9973434209823608]
	},
	{
		"bufferView":1,
		"type":"VEC2",
		"componentType":5126,
		"count":323,
		"byteOffset":24,
		"min":[0.0,
		0.0],
		"max":[1.0,
		1.0]
	},
	{
		"bufferView":2,
		"type":"SCALAR",
		"componentType":5123,
		"count":1584,
		"byteOffset":0,
		"min":[0],
		"max":[322]
	},
	{
		"bufferView":3,
		"type":"VEC3",
		"componentType":5126,
		"count":323,
		"byteOffset":0,
		"min":[-0.013647275976836682,
		-0.06225402280688286,
		-0.010635064914822579],
		"max":[0.02622257173061371,
		-0.011304382234811783,
		0.02810557559132576]
	},
	{
		"bufferView":3,
		"type":"VEC3",
		"componentType":5126,
		"count":323,
		"byteOffset":12,
		"min":[-0.9972579479217529,
		-0.9883078336715698,
		-0.9960280060768127],
		"max":[0.9972472190856934,
		0.9873945116996765,
		0.9957035779953003]
	},
	{
		"bufferView":3,
		"type":"VEC2",
		"componentType":5126,
		"count":323,
		"byteOffset":24,
		"min":[0.0,
		0.0],
		"max":[1.0,
		1.0]
	},
	{
		"bufferView":4,
		"type":"SCALAR",
		"componentType":5123,
		"count":1584,
		"byteOffset":0,
		"min":[0],
		"max":[322]
	},
	{
		"bufferView":5,
		"type":"VEC3",
		"componentType":5126,
		"count":323,
		"byteOffset":0,
		"min":[-0.03632856905460358,
		-0.04786181077361107,
		-0.014361647889018059],
		"max":[0.002779356436803937,
		-0.001023433287627995,
		0.025006350129842759]
	},
	{
		"bufferView":5,
		"type":"VEC3",
		"componentType":5126,
		"count":323,
		"byteOffset":12,
		"min":[-0.9888423681259155,
		-0.9942482709884644,
		-0.9971590638160706],
		"max":[0.9894074201583862,
		0.9930816292762756,
		0.9974169135093689]
	},
	{
		"bufferView":5,
		"type":"VEC2",
		"componentType":5126,
		"count":323,
		"byteOffset":24,
		"min":[0.0,
		0.0],
		"max":[1.0,
		1.0]
	},
	{
		"bufferView":6,
		"type":"SCALAR",
		"componentType":5123,
		"count":1584,
		"byteOffset":0,
		"min":[0],
		"max":[322]
	},
	{
		"bufferView":7,
		"type":"VEC3",
		"componentType":5126,
		"count":323,
		"byteOffset":0,
		"min":[-0.03749791160225868,
		-0.005950625520199537,
		-0.02654273249208927],
		"max":[0.001920774462632835,
		0.04044146090745926,
		0.012828243896365166]
	},
	{
		"bufferView":7,
		"type":"VEC3",
		"componentType":5126,
		"count":323,
		"byteOffset":12,
		"min":[-0.9891880750656128,
		-0.9971083402633667,
		-0.9963610172271729],
		"max":[0.9887385964393616,
		0.9967252612113953,
		0.995871365070343]
	},
	{
		"bufferView":7,
		"type":"VEC2",
		"componentType":5126,
		"count":323,
		"byteOffset":24,
		"min":[0.0,
		0.0],
		"max":[1.0,
		1.0]
	},
	{
		"bufferView":8,
		"type":"SCALAR",
		"componentType":5123,
		"count":1584,
		"byteOffset":0,
		"min":[0],
		"max":[322]
	},
	{
		"bufferView":9,
		"type":"VEC3",
		"componentType":5126,
		"count":323,
		"byteOffset":0,
		"min":[-0.013020613230764866,
		0.0050966632552444939,
		-0.03034447506070137],
		"max":[0.026849234476685525,
		0.05610191449522972,
		0.008400985039770604]
	},
	{
		"bufferView":9,
		"type":"VEC3",
		"componentType":5126,
		"count":323,
		"byteOffset":12,
		"min":[-0.9986648559570313,
		-0.9866957068443298,
		-0.995570719242096],
		"max":[0.9986050128936768,
		0.9882650971412659,
		0.9956501722335815]
	},
	{
		"bufferView":9,
		"type":"VEC2",
		"componentType":5126,
		"count":323,
		"byteOffset":24,
		"min":[0.0,
		0.0],
		"max":[1.0,
		1.0]
	},
	{
		"bufferView":10,
		"type":"SCALAR",
		"componentType":5123,
		"count":1224,
		"byteOffset":0,
		"min":[0],
		"max":[285]
	},
	{
		"bufferView":11,
		"type":"VEC3",
		"componentType":5126,
		"count":286,
		"byteOffset":0,
		"min":[0.00013530056457966566,
		-0.008757096715271473,
		-0.013891469687223435],
		"max":[0.027204925194382669,
		0.0061921291053295139,
		0.013891469687223435]
	},
	{
		"bufferView":11,
		"type":"VEC3",
		"componentType":5126,
		"count":286,
		"byteOffset":12,
		"min":[-0.9873328804969788,
		-0.9985989332199097,
		-0.9872856140136719],
		"max":[0.9986124634742737,
		0.9976831078529358,
		0.9872856140136719]
	},
	{
		"bufferView":11,
		"type":"VEC2",
		"componentType":5126,
		"count":286,
		"byteOffset":24,
		"min":[0.0,
		0.0],
		"max":[1.0,
		1.0]
	},
	{
		"bufferView":12,
		"type":"SCALAR",
		"componentType":5123,
		"count":378,
		"byteOffset":0,
		"min":[0],
		"max":[141]
	},
	{
		"bufferView":13,
		"type":"VEC3",
		"componentType":5126,
		"count":142,
		"byteOffset":0,
		"min":[-0.0029227070044726135,
		-0.04565617814660072,
		-0.0031626271083950998],
		"max":[0.015018071047961712,
		0.04537312313914299,
		0.0031626271083950998]
	},
	{
		"bufferView":13,
		"type":"VEC3",
		"componentType":5126,
		"count":142,
		"byteOffset":12,
		"min":[-0.9998661875724793,
		-1.0,
		-0.9749271869659424],
		"max":[0.9008709788322449,
		0.9659260511398315,
		0.9749271869659424]
	},
	{
		"bufferView":13,
		"type":"VEC2",
		"componentType":5126,
		"count":142,
		"byteOffset":24,
		"min":[0.0,
		0.0],
		"max":[1.0,
		1.0]
	}],
	"bufferViews":[{
		"buffer":0,
		"byteOffset":0,
		"byteLength":3168,
		"target":34963
	},
	{
		"buffer":0,
		"byteOffset":3168,
		"byteLength":10336,
		"target":34962,
		"byteStride":32
	},
	{
		"buffer":1,
		"byteOffset":0,
		"byteLength":3168,
		"target":34963
	},
	{
		"buffer":1,
		"byteOffset":3168,
		"byteLength":10336,
		"target":34962,
		"byteStride":32
	},
	{
		"buffer":2,
		"byteOffset":0,
		"byteLength":3168,
		"target":34963
	},
	{
		"buffer":2,
		"byteOffset":3168,
		"byteLength":10336,
		"target":34962,
		"byteStride":32
	},
	{
		"buffer":3,
		"byteOffset":0,
		"byteLength":3168,
		"target":34963
	},
	{
		"buffer":3,
		"byteOffset":3168,
		"byteLength":10336,
		"target":34962,
		"byteStride":32
	},
	{
		"buffer":4,
		"byteOffset":0,
		"byteLength":3168,
		"target":34963
	},
	{
		"buffer":4,
		"byteOffset":3168,
		"byteLength":10336,
		"target":34962,
		"byteStride":32
	},
	{
		"buffer":5,
		"byteOffset":0,
		"byteLength":2448,
		"target":34963
	},
	{
		"buffer":5,
		"byteOffset":2448,
		"byteLength":9152,
		"target":34962,
		"byteStride":32
	},
	{
		"buffer":6,
		"byteOffset":0,
		"byteLength":756,
		"target":34963
	},
	{
		"buffer":6,
		"byteOffset":756,
		"byteLength":4544,
		"target":34962,
		"byteStride":32
	}],
	"buffers":[{
		"uri":"data:application/octet-stream;base64,",
		"byteLength":13504
	},
	{
		"uri":"data:application/octet-stream;base64,",
		"byteLength":13504
	},
	{
		"uri":"data:application/octet-stream;base64,",
		"byteLength":13504
	},
	{
		"uri":"data:application/octet-stream;base64,",
		"byteLength":13504
	},
	{
		"uri":"data:application/octet-stream;base64,",
		"byteLength":13504
	},
	{
		"uri":"data:application/octet-stream;base64,",
		"byteLength":11600
	},
	{
		"uri":"data:application/octet-stream;base64,",
		"byteLength":5300
	}],
	"materials":[{
		"pbrMetallicRoughness":{
			"baseColorFactor":[0.9035532994923858,
			0.45406993223221428,
			0.5889149424102661,
			1.0],
			"metallicFactor":1.0,
			"roughnessFactor":1.0
		},
		"emissiveFactor":[0.6583181313451777,
		0.15149984597858769,
		0.4893787028896478],
		"alphaMode":"OPAQUE",
		"doubleSided":true,
		"name":"Red"
	},
	{
		"pbrMetallicRoughness":{
			"baseColorFactor":[0.8113066556726533,
			0.816878816769306,
			0.8781725888324873,
			1.0],
			"metallicFactor":1.0,
			"roughnessFactor":1.0
		},
		"emissiveFactor":[0.5088252724883404,
		0.5102231441160559,
		0.550761421319797],
		"alphaMode":"OPAQUE",
		"doubleSided":true,
		"name":"White"
	},
	{
		"pbrMetallicRoughness":{
			"baseColorFactor":[0.7394740910613519,
			0.817258883248731,
			0.6305753819990209,
			1.0],
			"metallicFactor":1.0,
			"roughnessFactor":1.0
		},
		"emissiveFactor":[0.4511427761601692,
		0.5543147208121828,
		0.3995568038341622],
		"alphaMode":"OPAQUE",
		"doubleSided":true,
		"name":"Green"
	}]
}